<svg width="1027" height="243" viewBox="0 0 1027 243" fill="none" xmlns="http://www.w3.org/2000/svg">
<path fill-rule="evenodd" clip-rule="evenodd" d="M835.889 73.532C842.115 73.532 847.162 78.5793 847.162 84.8056V170.284C847.162 176.51 842.115 181.558 835.889 181.558C829.662 181.558 824.615 176.51 824.615 170.284V84.8056C824.615 78.5793 829.662 73.532 835.889 73.532Z" fill="#ED3237"/>
<path fill-rule="evenodd" clip-rule="evenodd" d="M808.635 94.2519C812.089 99.4325 810.689 106.432 805.508 109.886C799.953 113.589 795.798 116.417 793.271 118.944C769.762 142.453 769.762 178.926 793.271 202.435C816.78 225.944 853.253 225.944 876.762 202.435L877.019 202.178L877.023 202.182C900.036 180.607 900.418 142.6 876.762 118.944C874.235 116.417 870.08 113.589 864.524 109.886C859.344 106.432 857.944 99.4325 861.398 94.2519C864.851 89.0714 871.851 87.6715 877.031 91.1252C877.207 91.2421 877.384 91.3602 877.563 91.4793C882.391 94.6961 888.413 98.7083 892.705 103.001C924.828 135.123 925.253 187.729 892.577 218.506C860.257 250.692 809.599 250.65 777.328 218.378C745.014 186.064 745.014 135.315 777.328 103.001C781.62 98.7083 787.642 94.6961 792.47 91.4793C792.649 91.3602 792.826 91.2421 793.001 91.1252C798.182 87.6715 805.181 89.0714 808.635 94.2519Z" fill="#ED3237"/>
<path d="M1 1H110.901V20.1891H20.1891V102.179H110.901V121.368H20.1891V219.058H110.901V236.503H1V1ZM144.046 93.4566H161.491V115.991C161.491 115.991 163.5 108.491 185 95.4915C195.467 90.2581 205.102 88.2232 215.569 88.2232C227.78 88.2232 236.503 91.7121 245.225 96.9455C253.947 102.179 259.181 110.901 264.414 119.624C267.903 128.346 269.647 144.046 269.647 163.235V236.503H250.458V168.468C250.458 151.024 250.458 140.557 248.714 135.324C246.969 124.857 243.48 117.879 236.503 112.646C229.525 109.157 222.547 105.668 212.08 105.668C201.613 105.668 189.576 108.236 178.5 119.624C178.5 119.624 170.179 124.991 164.98 145.79C163.235 152.768 161.491 164.98 161.491 184.169V236.503H144.046V93.4566ZM215.569 20.1891V1H651.685V20.1891H356.871V236.503H335.937V20.1891H215.569ZM424.905 35.8893H444.094V117.879C451.072 109.157 459.794 102.179 468.516 96.9455C477.239 91.7121 487.705 88.2232 498.172 88.2232C508.639 88.2232 519.106 91.7121 527.828 96.9455C536.55 102.179 541.784 110.901 545.273 119.624C550.506 128.346 552.25 142.302 552.25 163.235V236.503H533.061V168.468C533.061 151.024 533.061 140.557 531.317 135.324C529.572 124.857 524.339 117.879 519.106 112.646C512.128 109.157 505.15 105.668 494.683 105.668C484.216 105.668 473.75 109.157 465.027 117.879C456.305 124.857 449.327 133.579 447.583 145.79C444.094 152.768 444.094 164.98 444.094 184.169V236.503H424.905V35.8893ZM714.486 189.402L730.186 198.124C724.952 206.847 717.974 215.569 710.997 222.547C705.763 227.78 697.041 233.014 688.319 236.503C679.596 239.991 670.874 239.991 660.407 239.991C635.985 239.991 618.54 233.014 604.584 217.313C590.629 201.613 585.395 184.169 585.395 164.98C585.395 147.535 590.629 130.09 601.095 116.135C615.051 98.6899 634.24 88.2232 658.663 88.2232C683.085 88.2232 704.019 98.6899 717.974 117.879C728.441 130.09 733.675 145.79 733.675 166.724H602.84C604.584 182.424 609.818 196.38 620.285 206.847C633 217.313 633.5 219.491 659.5 222.491C672.5 223.991 682 219.491 682 219.491C690.5 216.991 701 208.991 701 208.991C710.997 201.491 714.486 189.402 714.486 189.402ZM714.486 151.024C710.997 140.557 707.508 131.835 702.274 126.601C698.785 121.368 691.808 116.135 684.83 112.646C676.107 109.157 667.385 107.412 658.663 107.412C644.707 107.412 632.496 110.901 622.029 119.624C615.051 126.601 609.818 137.068 606.329 151.024H714.486ZM1025 107.412L1012.79 121.368C1004.07 110.901 993.6 105.668 983.133 105.668C977.9 105.668 972.442 106.939 967.433 111.439C962.69 115.699 962.199 121.368 962.199 126.601C962.199 130.09 963.453 135.95 966.942 139.439C970.431 144.672 977.899 149.279 990.111 154.513C1004.07 161.491 1012.79 168.468 1018.02 175.446C1023.26 182.424 1025 189.402 1025 198.124C1025 210.336 1021.51 220.802 1012.79 227.78C1004.07 236.503 993.6 239.991 981.388 239.991C972.666 239.991 965.688 238.247 956.966 234.758C949.988 231.269 943.01 226.036 937.777 220.802C943.01 215.569 946.499 212.08 949.988 206.847C960.455 217.313 969.177 222.547 981.388 222.547C988.366 222.547 993.6 220.802 998.833 215.569C1004.07 210.336 1007.56 205.102 1007.56 199.869C1007.56 192.891 1005.81 189.402 1002.32 184.169C998.833 180.68 990.111 175.446 979.644 170.213C965.688 163.235 959.442 157.939 952.442 150.439C948.953 143.461 944.755 135.324 944.755 126.601C944.755 116.135 948.406 106.939 956.442 99.4387C963.942 92.4387 972.666 88.2232 984.877 88.2232C998.833 88.2232 1011.04 95.201 1025 107.412Z" fill="#BDBFC1" stroke="black" stroke-width="2"/>
</svg>
