<svg width="1025" height="851" viewBox="0 0 1025 851" fill="none" xmlns="http://www.w3.org/2000/svg">
<path fill-rule="evenodd" clip-rule="evenodd" d="M444.985 0.879669L740.865 294.659L296.224 743.399L0.345215 449.714L98.8001 350.297L276.221 526.527L344.597 457.548L217.54 331.46L315.994 231.949L443.052 358.223L506.459 294.131L329.038 117.993L444.985 0.879669ZM445.011 6.86736L335.017 117.967L512.437 294.104L443.077 364.213L316.02 237.939L223.519 331.433L350.578 457.523L276.244 532.514L98.8249 356.285L6.32517 449.688L296.199 737.413L734.885 294.683L445.011 6.86736Z" fill="white"/>
<path fill-rule="evenodd" clip-rule="evenodd" d="M635.219 232.179C635.219 228.394 638.281 225.349 642.029 225.349C645.778 225.349 648.839 228.394 648.839 232.179C648.839 235.964 645.778 239.01 642.029 239.01C638.281 239.01 635.219 235.964 635.219 232.179ZM642.029 221.129C635.913 221.129 630.978 226.089 630.978 232.179C630.978 238.27 635.913 243.23 642.029 243.23C644.661 243.23 647.075 242.311 648.97 240.78L668.417 262.003L669.612 278.29L696.765 309.317L687.916 318.083L699.809 329.989L686.486 343.478L674.609 331.588L666.503 339.794L641.821 315.424L642.45 306.742C647.614 305.805 651.516 301.284 651.516 295.869C651.516 289.778 646.58 284.818 640.464 284.818C634.348 284.818 629.412 289.778 629.412 295.869C629.412 301.187 633.175 305.643 638.202 306.688L637.45 317.053L663.53 342.804L655.322 351.114L667.291 362.82L653.979 376.296L642.106 364.503L634.079 372.584L617.1 353.625L618.859 340.554L591.622 313.467C592.927 311.651 593.696 309.424 593.696 307.021C593.696 300.931 588.76 295.971 582.644 295.971C576.528 295.971 571.592 300.931 571.592 307.021C571.592 313.112 576.528 318.072 582.644 318.072C584.814 318.072 586.836 317.448 588.541 316.37L614.377 342.063L612.637 354.985L631.092 375.591L622.828 383.911L634.71 395.713L621.478 409.109L609.605 397.315L601.358 405.618L581.846 388.373L557.703 386.941C556.113 382.796 552.098 379.846 547.381 379.846C541.265 379.846 536.329 384.806 536.329 390.896C536.329 396.987 541.265 401.947 547.381 401.947C553.391 401.947 558.262 397.157 558.428 391.211L580.127 392.498L598.372 408.624L590.327 416.723L602.204 428.521L588.729 442.086L577.032 430.1L568.837 438.397L550.049 421.582L521.087 411.457L506.527 397.372C507.846 395.551 508.622 393.313 508.622 390.896C508.622 384.806 503.687 379.846 497.571 379.846C491.455 379.846 486.519 384.806 486.519 390.896C486.519 396.987 491.455 401.947 497.571 401.947C499.726 401.947 501.736 401.331 503.434 400.266L518.8 415.13L547.843 425.283L565.861 441.409L557.865 449.506L569.466 461.58L556.39 474.82L544.513 462.93L536.361 471.183L521.108 457.042L498.103 455.66L489.866 447.864C490.844 446.214 491.405 444.289 491.405 442.235C491.405 436.145 486.469 431.185 480.353 431.185C474.237 431.185 469.302 436.145 469.302 442.235C469.302 448.326 474.237 453.286 480.353 453.286C482.875 453.286 485.195 452.443 487.052 451.025L496.301 459.78L519.332 461.163L533.387 474.194L525.214 482.468L537.276 494.082L523.97 507.553L512.001 495.755L503.856 504L472.721 473.454L444.656 465.072L428.533 448.763C429.406 447.182 429.902 445.364 429.902 443.434C429.902 437.343 424.966 432.383 418.85 432.383C412.734 432.383 407.798 437.343 407.798 443.434C407.798 449.524 412.734 454.484 418.85 454.484C421.489 454.484 423.908 453.561 425.805 452.022L442.394 468.802L470.492 477.195L500.883 507.01L492.748 515.246L504.533 527.136L491.377 540.457L479.407 528.66L471.354 536.814L459.44 524.414L457.047 506.258L444.655 493.336C445.862 491.564 446.567 489.424 446.567 487.122C446.567 481.032 441.631 476.072 435.515 476.072C429.399 476.072 424.463 481.032 424.463 487.122C424.463 493.213 429.399 498.173 435.515 498.173C437.787 498.173 439.896 497.488 441.65 496.315L453.021 508.173L455.415 526.332L468.379 539.825L460.247 548.059L472.028 559.944L458.794 573.268L446.912 561.466L438.821 569.659L412.032 542.924C413.201 541.17 413.882 539.064 413.882 536.802C413.882 530.711 408.946 525.751 402.83 525.751C396.714 525.751 391.778 530.711 391.778 536.802C391.778 542.893 396.714 547.852 402.83 547.852C405.142 547.852 407.285 547.144 409.057 545.933L435.847 572.669L427.746 580.871L439.527 592.757L426.293 606.081L414.416 594.283L406.353 602.4L383.657 578.164L385.216 558.324L360.688 529.003C361.894 527.232 362.598 525.092 362.598 522.792C362.598 516.701 357.663 511.742 351.546 511.742C345.43 511.742 340.495 516.701 340.495 522.792C340.495 528.883 345.43 533.843 351.546 533.843C353.814 533.843 355.919 533.161 357.671 531.993L380.853 559.706L379.282 579.684L403.369 605.404L395.132 613.697L407.105 625.499L393.713 639.056L381.932 627.078L373.777 635.288L355.559 616.534L345.69 610.44L326.567 591.467C327.581 589.797 328.164 587.837 328.164 585.744C328.164 579.654 323.228 574.694 317.112 574.694C310.996 574.694 306.06 579.654 306.06 585.744C306.06 591.835 310.996 596.795 317.112 596.795C319.593 596.795 321.879 595.979 323.721 594.603L343.04 613.77L352.874 619.843L370.795 638.291L362.637 646.504L374.518 658.306L361.2 671.788L349.319 659.894L341.152 668.209L327.184 655.963L300.149 656.792L286.147 643.822C287.161 642.151 287.745 640.191 287.745 638.097C287.745 632.007 282.809 627.047 276.693 627.047C270.577 627.047 265.641 632.007 265.641 638.097C265.641 644.188 270.577 649.148 276.693 649.148C279.174 649.148 281.462 648.331 283.304 646.954L298.536 661.063L325.638 660.233L338.184 671.231L330.138 679.423L342.011 691.124L328.694 704.607L316.821 692.813L308.659 701.03L255.315 651.056L243.027 647.429C243.601 646.092 243.919 644.62 243.919 643.074C243.919 636.984 238.984 632.024 232.867 632.024C226.751 632.024 221.816 636.984 221.816 643.074C221.816 649.165 226.751 654.125 232.867 654.125C235.824 654.125 238.504 652.966 240.485 651.081L253.141 654.817L305.676 704.033L297.537 712.227L309.506 724.025L293.215 740.425L404.402 850.88L733.003 519.158L908.306 693.177L1024.35 575.877L737.859 291.69L720.275 309.385L708.501 297.691L699.778 306.333L673.74 276.58L672.541 260.239L651.713 237.509C652.585 235.927 653.081 234.11 653.081 232.179C653.081 226.089 648.145 221.129 642.029 221.129ZM640.464 289.038C636.716 289.038 633.654 292.084 633.654 295.869C633.654 299.654 636.716 302.699 640.464 302.699C644.213 302.699 647.274 299.654 647.274 295.869C647.274 292.084 644.213 289.038 640.464 289.038ZM575.834 307.021C575.834 303.237 578.895 300.191 582.644 300.191C586.392 300.191 589.454 303.237 589.454 307.021C589.454 310.806 586.392 313.852 582.644 313.852C578.895 313.852 575.834 310.806 575.834 307.021ZM490.761 390.896C490.761 387.112 493.822 384.066 497.571 384.066C501.319 384.066 504.381 387.112 504.381 390.896C504.381 394.681 501.319 397.727 497.571 397.727C493.822 397.727 490.761 394.681 490.761 390.896ZM480.353 435.405C476.605 435.405 473.543 438.451 473.543 442.235C473.543 446.02 476.605 449.066 480.353 449.066C484.102 449.066 487.163 446.02 487.163 442.235C487.163 438.451 484.102 435.405 480.353 435.405ZM428.705 487.122C428.705 483.337 431.766 480.292 435.515 480.292C439.264 480.292 442.325 483.337 442.325 487.122C442.325 490.907 439.264 493.953 435.515 493.953C431.766 493.953 428.705 490.907 428.705 487.122ZM344.737 522.792C344.737 519.007 347.798 515.962 351.546 515.962C355.295 515.962 358.356 519.007 358.356 522.792C358.356 526.577 355.295 529.623 351.546 529.623C347.798 529.623 344.737 526.577 344.737 522.792ZM317.112 578.914C313.363 578.914 310.302 581.96 310.302 585.744C310.302 589.529 313.363 592.575 317.112 592.575C320.861 592.575 323.922 589.529 323.922 585.744C323.922 581.96 320.861 578.914 317.112 578.914ZM269.883 638.097C269.883 634.312 272.944 631.267 276.693 631.267C280.442 631.267 283.503 634.312 283.503 638.097C283.503 641.882 280.442 644.928 276.693 644.928C272.944 644.928 269.883 641.882 269.883 638.097ZM226.057 643.074C226.057 639.289 229.119 636.244 232.867 636.244C236.616 636.244 239.677 639.289 239.677 643.074C239.677 646.859 236.616 649.905 232.867 649.905C229.119 649.905 226.057 646.859 226.057 643.074ZM402.83 529.971C399.081 529.971 396.02 533.017 396.02 536.802C396.02 540.587 399.081 543.633 402.83 543.633C406.578 543.633 409.64 540.587 409.64 536.802C409.64 533.017 406.578 529.971 402.83 529.971ZM547.381 384.066C543.632 384.066 540.571 387.112 540.571 390.896C540.571 394.681 543.632 397.727 547.381 397.727C551.129 397.727 554.191 394.681 554.191 390.896C554.191 387.112 551.129 384.066 547.381 384.066ZM418.85 436.603C415.101 436.603 412.04 439.649 412.04 443.434C412.04 447.218 415.101 450.264 418.85 450.264C422.599 450.264 425.66 447.218 425.66 443.434C425.66 439.649 422.599 436.603 418.85 436.603ZM444.63 637.544L419.403 662.707L473.632 717.363L498.767 692.385L494.164 687.777L473.54 708.423L451.351 686.026L471.975 665.472L467.463 660.863L446.748 681.417L428.333 662.891L449.233 642.153L444.63 637.544ZM475.566 646.392L471.33 650.54L505.857 685.288L510.092 681.141L497.386 668.421C492.875 663.813 489.929 660.494 488.64 658.374C486.614 655.056 485.786 651.554 486.062 647.775C486.246 643.996 487.627 640.77 490.205 638.281C492.415 636.069 494.808 634.871 497.386 634.595C499.872 634.41 502.542 635.148 505.304 636.991C506.962 638.005 509.816 640.493 513.775 644.457L530.256 661.047L534.399 656.9L516.629 639.019C511.934 634.318 508.067 631.276 504.936 629.986C501.806 628.603 498.675 628.235 495.453 628.788C492.23 629.341 489.376 630.908 486.982 633.304C484.589 635.701 482.931 638.466 482.011 641.692C481.182 644.918 481.09 648.512 481.734 652.568L475.566 646.392ZM467.556 614.778L472.159 619.294L499.78 591.828L549.498 641.876L554.01 637.36L504.292 587.311L571.964 519.843L567.452 515.326L467.556 614.778ZM525.836 569.615L521.693 573.762L569.57 621.875L573.713 617.727L561.099 605.008C556.496 600.399 553.55 597.081 552.261 594.961C550.327 591.735 549.406 588.141 549.683 584.362C549.959 580.583 551.34 577.449 553.918 574.868C556.127 572.656 558.521 571.458 561.007 571.181C563.585 570.997 566.255 571.827 569.017 573.578C570.675 574.592 573.437 577.08 577.396 581.136L593.876 597.634L598.02 593.487L580.25 575.606C575.554 570.905 571.687 567.863 568.557 566.573C565.427 565.19 562.296 564.822 559.074 565.375C555.851 566.02 553.089 567.495 550.603 569.891C548.209 572.287 546.552 575.053 545.724 578.371C544.895 581.505 544.711 585.191 545.447 589.247L525.836 569.615ZM628.587 544.083L623.155 545.65C624.076 549.153 624.536 552.01 624.352 554.13C624.26 556.25 623.799 558.37 622.787 560.582C621.774 562.702 620.485 564.637 618.828 566.296C615.329 569.707 611.186 571.366 606.306 571.089C601.334 570.905 596.915 568.785 592.772 564.914L622.326 535.512C617.539 530.811 612.383 528.046 606.951 527.216C599.124 526.11 592.403 528.322 586.879 533.852C581.447 539.198 579.237 545.742 580.434 553.3C581.263 559.291 583.841 564.545 588.26 568.877C592.864 573.578 598.572 576.251 605.201 576.988C611.922 577.633 617.907 575.421 623.339 570.075C625.733 567.679 627.482 565.098 628.587 562.425C629.784 559.752 630.336 556.987 630.429 553.946C630.429 550.904 629.876 547.678 628.587 544.083ZM605.754 532.931C608.239 533.299 610.91 534.405 613.856 536.249L589.365 560.582C587.063 556.526 585.958 552.84 586.05 549.614C586.235 545.097 587.892 541.226 591.114 538C593.048 536.065 595.35 534.682 598.02 533.76C600.69 532.931 603.176 532.654 605.754 532.931ZM673.149 463.066L672.873 457.351C666.796 457.351 662.193 458.826 659.155 461.775C656.577 464.356 655.288 467.398 655.38 470.808C655.38 474.218 656.669 477.26 659.339 479.933C661.364 481.868 663.666 483.159 666.244 483.712C668.914 484.173 672.505 483.804 677.016 482.514C681.252 481.223 684.198 480.67 685.947 480.855C687.789 481.131 689.262 481.868 690.551 483.159C692.116 484.726 692.852 486.661 692.76 488.966C692.76 491.27 691.932 493.298 690.182 494.957C687.789 497.353 684.198 498.367 679.502 497.906L680.055 503.713C682.725 504.174 685.303 503.897 687.881 503.068C690.459 502.238 692.76 500.948 694.602 499.012C697.456 496.247 698.837 492.929 698.745 489.058C698.653 485.187 697.18 481.868 694.326 479.011C692.3 476.983 689.998 475.693 687.236 475.14C684.566 474.679 680.791 475.14 676.003 476.523C672.044 477.629 669.098 478.089 667.257 477.905C665.507 477.629 664.034 476.983 662.837 475.877C661.64 474.587 660.996 472.928 660.996 471.085C660.996 469.149 661.733 467.49 663.114 466.107C665.231 463.987 668.546 462.974 673.149 463.066ZM659.568 498.57C654.364 493.361 646.892 491.787 640.279 493.994C638.613 494.55 636.81 493.657 636.251 492C635.692 490.343 636.59 488.548 638.256 487.993C647.111 485.038 657.131 487.151 664.081 494.108C673.885 503.923 673.778 519.839 663.983 529.546C654.158 539.374 638.327 539.245 628.54 529.447C621.364 522.264 619.483 511.821 622.845 502.88C623.461 501.243 625.294 500.413 626.94 501.025C628.585 501.638 629.42 503.461 628.805 505.098C626.274 511.827 627.708 519.634 633.053 524.985C640.39 532.329 652.175 532.386 659.476 525.077L659.488 525.065C666.812 517.812 666.887 505.897 659.568 498.57ZM628.751 494.174C630.005 492.949 632.019 492.966 633.25 494.213L649.179 510.343C650.41 511.59 650.392 513.594 649.139 514.819C647.885 516.044 645.871 516.026 644.64 514.779L628.712 498.649C627.48 497.402 627.498 495.399 628.751 494.174Z" fill="white"/>
</svg>
