<svg width="1026" height="852" viewBox="0 0 1026 852" fill="none" xmlns="http://www.w3.org/2000/svg">
<path fill-rule="evenodd" clip-rule="evenodd" d="M1 449.995L295.596 742.766L739.851 293.863L445.255 1L331.621 115.918L510.083 293.306L443.31 360.883L315.507 233.713L219.469 330.901L347.273 457.885L275.499 530.382L97.0376 352.9L1 449.995Z" fill="#A9ABAE" stroke="#A9ABAE" stroke-width="0.199999"/>
<path fill-rule="evenodd" clip-rule="evenodd" d="M231.879 638C228.164 638 225.153 641.019 225.153 644.742C225.153 648.466 228.164 651.485 231.879 651.485C235.594 651.485 238.606 648.466 238.606 644.742C238.606 641.019 235.594 638 231.879 638ZM220.639 644.742C220.639 638.52 225.672 633.477 231.879 633.477C238.087 633.477 243.119 638.52 243.119 644.742C243.119 650.964 238.087 656.008 231.879 656.008C225.672 656.008 220.639 650.964 220.639 644.742Z" fill="#FEFEFE"/>
<path fill-rule="evenodd" clip-rule="evenodd" d="M275.962 632.988C272.247 632.988 269.235 636.006 269.235 639.73C269.235 643.454 272.247 646.472 275.962 646.472C279.677 646.472 282.689 643.454 282.689 639.73C282.689 636.006 279.677 632.988 275.962 632.988ZM264.722 639.73C264.722 633.508 269.754 628.464 275.962 628.464C282.17 628.464 287.202 633.508 287.202 639.73C287.202 645.952 282.17 650.996 275.962 650.996C269.754 650.996 264.722 645.952 264.722 639.73Z" fill="#FEFEFE"/>
<path fill-rule="evenodd" clip-rule="evenodd" d="M316.618 580.263C312.903 580.263 309.892 583.282 309.892 587.005C309.892 590.729 312.903 593.747 316.618 593.747C320.333 593.747 323.345 590.729 323.345 587.005C323.345 583.282 320.333 580.263 316.618 580.263ZM305.378 587.005C305.378 580.783 310.411 575.739 316.618 575.739C322.826 575.739 327.858 580.783 327.858 587.005C327.858 593.227 322.826 598.271 316.618 598.271C310.411 598.271 305.378 593.227 305.378 587.005Z" fill="#FEFEFE"/>
<path fill-rule="evenodd" clip-rule="evenodd" d="M351.255 516.863C347.54 516.863 344.528 519.882 344.528 523.606C344.528 527.329 347.54 530.348 351.255 530.348C354.97 530.348 357.981 527.329 357.981 523.606C357.981 519.882 354.97 516.863 351.255 516.863ZM340.015 523.606C340.015 517.384 345.047 512.34 351.255 512.34C357.462 512.34 362.495 517.384 362.495 523.606C362.495 529.828 357.462 534.872 351.255 534.872C345.047 534.872 340.015 529.828 340.015 523.606Z" fill="#FEFEFE"/>
<path fill-rule="evenodd" clip-rule="evenodd" d="M402.839 530.973C399.124 530.973 396.113 533.992 396.113 537.715C396.113 541.439 399.124 544.457 402.839 544.457C406.554 544.457 409.566 541.439 409.566 537.715C409.566 533.992 406.554 530.973 402.839 530.973ZM391.599 537.715C391.599 531.493 396.631 526.449 402.839 526.449C409.047 526.449 414.079 531.493 414.079 537.715C414.079 543.937 409.047 548.981 402.839 548.981C396.631 548.981 391.599 543.937 391.599 537.715Z" fill="#FEFEFE"/>
<path fill-rule="evenodd" clip-rule="evenodd" d="M435.716 480.94C432.001 480.94 428.989 483.959 428.989 487.682C428.989 491.406 432.001 494.425 435.716 494.425C439.431 494.425 442.443 491.406 442.443 487.682C442.443 483.959 439.431 480.94 435.716 480.94ZM424.476 487.682C424.476 481.46 429.508 476.416 435.716 476.416C441.924 476.416 446.956 481.46 446.956 487.682C446.956 493.904 441.924 498.948 435.716 498.948C429.508 498.948 424.476 493.904 424.476 487.682Z" fill="#FEFEFE"/>
<path fill-rule="evenodd" clip-rule="evenodd" d="M480.818 435.734C477.103 435.734 474.091 438.753 474.091 442.477C474.091 446.2 477.103 449.219 480.818 449.219C484.533 449.219 487.544 446.2 487.544 442.477C487.544 438.753 484.533 435.734 480.818 435.734ZM469.578 442.477C469.578 436.255 474.61 431.211 480.818 431.211C487.025 431.211 492.058 436.255 492.058 442.477C492.058 448.698 487.025 453.742 480.818 453.742C474.61 453.742 469.578 448.698 469.578 442.477Z" fill="#FEFEFE"/>
<path fill-rule="evenodd" clip-rule="evenodd" d="M498.136 384.031C494.421 384.031 491.409 387.049 491.409 390.773C491.409 394.496 494.421 397.515 498.136 397.515C501.851 397.515 504.863 394.496 504.863 390.773C504.863 387.049 501.851 384.031 498.136 384.031ZM486.896 390.773C486.896 384.551 491.928 379.507 498.136 379.507C504.344 379.507 509.376 384.551 509.376 390.773C509.376 396.995 504.344 402.039 498.136 402.039C491.928 402.039 486.896 396.995 486.896 390.773Z" fill="#FEFEFE"/>
<path fill-rule="evenodd" clip-rule="evenodd" d="M548.238 384.031C544.523 384.031 541.512 387.049 541.512 390.773C541.512 394.496 544.523 397.515 548.238 397.515C551.953 397.515 554.965 394.496 554.965 390.773C554.965 387.049 551.953 384.031 548.238 384.031ZM536.999 390.773C536.999 384.551 542.031 379.507 548.238 379.507C554.446 379.507 559.478 384.551 559.478 390.773C559.478 396.995 554.446 402.039 548.238 402.039C542.031 402.039 536.999 396.995 536.999 390.773Z" fill="#FEFEFE"/>
<path fill-rule="evenodd" clip-rule="evenodd" d="M583.708 299.56C579.993 299.56 576.982 302.578 576.982 306.302C576.982 310.026 579.993 313.044 583.708 313.044C587.423 313.044 590.435 310.026 590.435 306.302C590.435 302.578 587.423 299.56 583.708 299.56ZM572.469 306.302C572.469 300.08 577.501 295.036 583.708 295.036C589.916 295.036 594.948 300.08 594.948 306.302C594.948 312.524 589.916 317.568 583.708 317.568C577.501 317.568 572.469 312.524 572.469 306.302Z" fill="#FEFEFE"/>
<path fill-rule="evenodd" clip-rule="evenodd" d="M641.868 288.328C638.153 288.328 635.141 291.347 635.141 295.07C635.141 298.794 638.153 301.812 641.868 301.812C645.583 301.812 648.595 298.794 648.595 295.07C648.595 291.347 645.583 288.328 641.868 288.328ZM630.628 295.07C630.628 288.848 635.66 283.804 641.868 283.804C648.076 283.804 653.108 288.848 653.108 295.07C653.108 301.292 648.076 306.336 641.868 306.336C635.66 306.336 630.628 301.292 630.628 295.07Z" fill="#FEFEFE"/>
<path fill-rule="evenodd" clip-rule="evenodd" d="M643.442 224.186C639.727 224.186 636.716 227.204 636.716 230.928C636.716 234.652 639.727 237.67 643.442 237.67C647.157 237.67 650.169 234.652 650.169 230.928C650.169 227.204 647.157 224.186 643.442 224.186ZM632.203 230.928C632.203 224.706 637.235 219.662 643.442 219.662C649.65 219.662 654.682 224.706 654.682 230.928C654.682 237.15 649.65 242.194 643.442 242.194C637.235 242.194 632.203 237.15 632.203 230.928Z" fill="#FEFEFE"/>
<path fill-rule="evenodd" clip-rule="evenodd" d="M418.953 436.941C415.238 436.941 412.227 439.96 412.227 443.683C412.227 447.407 415.238 450.425 418.953 450.425C422.668 450.425 425.68 447.407 425.68 443.683C425.68 439.96 422.668 436.941 418.953 436.941ZM407.713 443.683C407.713 437.461 412.746 432.417 418.953 432.417C425.161 432.417 430.193 437.461 430.193 443.683C430.193 449.905 425.161 454.949 418.953 454.949C412.746 454.949 407.713 449.905 407.713 443.683Z" fill="#FEFEFE"/>
<path fill-rule="evenodd" clip-rule="evenodd" d="M252.214 656.693L238.279 652.574L239.556 648.235L254.516 652.657L309.733 704.448L306.649 707.751L252.214 656.693Z" fill="#FEFEFE"/>
<path fill-rule="evenodd" clip-rule="evenodd" d="M281.097 647.424L284.163 644.103L299.599 658.419L326.791 657.585L342.369 671.26L339.396 674.663L325.153 662.161L297.89 662.998L281.097 647.424Z" fill="#FEFEFE"/>
<path fill-rule="evenodd" clip-rule="evenodd" d="M321.698 594.553L324.875 591.34L345.436 611.764L355.363 617.902L375.192 638.339L371.956 641.492L352.518 621.458L342.626 615.342L321.698 594.553Z" fill="#FEFEFE"/>
<path fill-rule="evenodd" clip-rule="evenodd" d="M380.606 560.83L355.915 531.277L359.375 528.373L385.25 559.342L383.681 579.318L408.005 605.323L404.712 608.417L379.025 580.954L380.606 560.83Z" fill="#FEFEFE"/>
<path fill-rule="evenodd" clip-rule="evenodd" d="M437.457 575.426L407.636 545.629L410.822 542.425L440.643 572.222L437.457 575.426Z" fill="#FEFEFE"/>
<path fill-rule="evenodd" clip-rule="evenodd" d="M453.209 508.95L440.386 495.561L443.642 492.428L457.49 506.887L459.898 525.172L473.368 539.21L470.115 542.346L455.617 527.237L453.209 508.95Z" fill="#FEFEFE"/>
<path fill-rule="evenodd" clip-rule="evenodd" d="M424.388 450.937L427.596 447.754L444.971 465.352L473.2 473.793L506.013 506.024L502.854 509.255L470.839 477.808L442.575 469.356L424.388 450.937Z" fill="#FEFEFE"/>
<path fill-rule="evenodd" clip-rule="evenodd" d="M486.028 450.061L489.129 446.774L498.72 455.863L521.859 457.254L538.751 472.935L535.684 476.253L519.977 461.673L496.811 460.28L486.028 450.061Z" fill="#FEFEFE"/>
<path fill-rule="evenodd" clip-rule="evenodd" d="M502.587 398.99L505.724 395.737L521.852 411.358L550.981 421.553L571.413 439.862L568.405 443.234L548.644 425.527L519.429 415.301L502.587 398.99Z" fill="#FEFEFE"/>
<path fill-rule="evenodd" clip-rule="evenodd" d="M581.131 392.52L556.903 391.081L557.17 386.566L582.952 388.097L604.095 406.807L601.108 410.198L581.131 392.52Z" fill="#FEFEFE"/>
<path fill-rule="evenodd" clip-rule="evenodd" d="M615.496 341.645L588.138 314.404L591.319 311.195L620.268 340.021L618.498 353.189L637.066 373.947L633.705 376.967L613.747 354.654L615.496 341.645Z" fill="#FEFEFE"/>
<path fill-rule="evenodd" clip-rule="evenodd" d="M643.361 314.707L644.119 304.238L639.617 303.91L638.709 316.462L666.492 343.929L669.662 340.708L643.361 314.707Z" fill="#FEFEFE"/>
<path fill-rule="evenodd" clip-rule="evenodd" d="M669.866 261.025L648.818 238.026L652.144 234.968L674.252 259.125L675.459 275.584L703.114 307.225L699.72 310.206L671.068 277.426L669.866 261.025Z" fill="#FEFEFE"/>
<path fill-rule="evenodd" clip-rule="evenodd" d="M1025 577.073L739.851 293.863L722.162 311.686L710.308 299.897L692.619 317.441L704.566 329.415L688.174 346.031L676.227 334.057L659.835 350.672L671.874 362.461L655.482 379.077L643.535 367.195L627.143 383.718L639.09 395.6L622.79 412.123L610.844 400.241L594.452 416.764L606.398 428.646L589.821 445.354L578.059 433.287L561.76 449.81L573.429 461.97L557.314 478.307L545.368 466.333L528.976 482.948L541.108 494.644L524.715 511.26L512.676 499.378L496.284 515.994L508.138 527.968L491.931 544.398L479.892 532.517L463.592 549.04L475.446 561.014L459.147 577.444L447.2 565.563L430.9 582.085L442.755 594.06L426.455 610.49L414.508 598.608L398.116 615.131L410.156 627.013L393.671 643.721L381.817 631.654L365.424 648.177L377.371 660.059L360.979 676.674L349.032 664.7L332.733 681.316L344.68 693.104L328.287 709.72L316.341 697.838L299.948 714.361L311.988 726.243L295.596 742.766L404.414 851L734.942 516.922L911.274 692.176L1025 577.073Z" fill="#201E1E" stroke="#201E1E" stroke-width="0.199999"/>
<path fill-rule="evenodd" clip-rule="evenodd" d="M629.95 494.645C631.279 493.327 633.422 493.34 634.737 494.672L650.758 510.917C652.073 512.249 652.06 514.398 650.731 515.715C649.401 517.032 647.258 517.02 645.944 515.687L629.922 499.443C628.608 498.11 628.62 495.962 629.95 494.645Z" fill="#ED3237"/>
<path fill-rule="evenodd" clip-rule="evenodd" d="M660.961 499.364C655.778 494.17 648.33 492.596 641.735 494.8C639.961 495.392 638.044 494.431 637.453 492.654C636.862 490.876 637.82 488.955 639.594 488.362C648.558 485.367 658.705 487.507 665.748 494.566C675.692 504.533 675.583 520.703 665.649 530.56C655.695 540.529 639.665 540.397 629.751 530.46C622.474 523.167 620.563 512.558 623.975 503.474C624.634 501.72 626.586 500.834 628.336 501.494C630.085 502.154 630.97 504.111 630.311 505.865C627.796 512.561 629.219 520.331 634.538 525.662C641.847 532.989 653.596 533.044 660.868 525.755L660.881 525.742L660.881 525.742C668.166 518.519 668.24 506.66 660.961 499.364Z" fill="#ED3237"/>
<path d="M419.509 664.514L444.885 639.173L449.515 643.814L428.492 664.7L447.015 683.358L467.852 662.658L472.39 667.299L451.645 687.999L473.964 710.556L494.709 689.763L499.34 694.404L474.057 719.56L419.509 664.514ZM471.742 652.261L476.002 648.084L482.207 654.303C481.559 650.219 481.651 646.599 482.485 643.35C483.411 640.101 485.078 637.316 487.486 634.903C489.894 632.49 492.764 630.912 496.006 630.355C499.247 629.798 502.396 630.169 505.545 631.561C508.694 632.861 512.583 635.924 517.306 640.658L535.18 658.666L531.013 662.843L514.435 646.135C510.453 642.143 507.582 639.637 505.915 638.616C503.137 636.76 500.451 636.017 497.951 636.203C495.358 636.481 492.95 637.688 490.727 639.916C488.134 642.422 486.745 645.671 486.56 649.477C486.282 653.282 487.115 656.81 489.153 660.151C490.449 662.286 493.413 665.628 497.951 670.269L510.731 683.079L506.471 687.256L471.742 652.261ZM472.575 620.794L467.945 616.245L568.428 516.087L572.966 520.635L504.897 588.583L554.906 638.987L550.369 643.536L500.359 593.132L472.575 620.794ZM522.4 574.938L526.567 570.761L546.294 590.533C545.553 586.448 545.738 582.735 546.571 579.579C547.405 576.238 549.072 573.453 551.48 571.039C553.98 568.626 556.759 567.141 560 566.491C563.241 565.934 566.39 566.305 569.539 567.698C572.688 568.997 576.577 572.06 581.301 576.794L599.175 594.803L595.007 598.98L578.43 582.364C574.447 578.28 571.669 575.773 570.002 574.752C567.224 572.989 564.538 572.153 561.945 572.339C559.444 572.617 557.037 573.824 554.814 576.052C552.221 578.651 550.832 581.807 550.554 585.613C550.276 589.419 551.202 593.039 553.147 596.288C554.443 598.423 557.407 601.764 562.038 606.406L574.725 619.216L570.558 623.393L522.4 574.938ZM624.457 546.626L629.921 545.048C631.218 548.668 631.774 551.917 631.774 554.981C631.681 558.044 631.125 560.829 629.921 563.52C628.81 566.212 627.05 568.812 624.643 571.225C619.179 576.609 613.159 578.837 606.398 578.187C599.73 577.444 593.988 574.752 589.358 570.018C584.912 565.655 582.319 560.364 581.486 554.331C580.282 546.719 582.505 540.129 587.969 534.745C593.525 529.175 600.286 526.947 608.158 528.061C613.622 528.897 618.808 531.681 623.624 536.416L593.896 566.027C598.063 569.925 602.509 572.06 607.51 572.246C612.418 572.525 616.585 570.854 620.105 567.419C621.772 565.748 623.068 563.799 624.087 561.664C625.106 559.436 625.569 557.301 625.661 555.166C625.847 553.031 625.383 550.154 624.457 546.626ZM615.104 537.158C612.14 535.302 609.454 534.188 606.954 533.816C604.361 533.538 601.86 533.816 599.175 534.652C596.489 535.58 594.174 536.972 592.229 538.922C588.987 542.171 587.32 546.069 587.135 550.618C587.042 553.867 588.154 557.58 590.469 561.664L615.104 537.158ZM674.467 457.7L674.745 463.455C670.115 463.362 666.781 464.383 664.651 466.518C663.261 467.911 662.52 469.581 662.52 471.531C662.52 473.387 663.169 475.058 664.373 476.358C665.577 477.472 667.058 478.121 668.818 478.4C670.67 478.585 673.634 478.121 677.616 477.007C682.432 475.615 686.229 475.151 688.915 475.615C691.693 476.172 694.008 477.472 696.046 479.514C698.917 482.391 700.398 485.733 700.491 489.632C700.584 493.53 699.194 496.872 696.324 499.657C694.471 501.606 692.156 502.906 689.563 503.741C686.97 504.577 684.377 504.855 681.691 504.391L681.135 498.543C685.858 499.007 689.47 497.986 691.878 495.572C693.638 493.902 694.471 491.859 694.471 489.539C694.564 487.218 693.823 485.269 692.249 483.691C690.952 482.391 689.47 481.649 687.618 481.37C685.858 481.185 682.895 481.742 678.635 483.041C674.097 484.341 670.485 484.712 667.799 484.248C665.206 483.691 662.891 482.391 660.853 480.442C658.168 477.75 656.871 474.687 656.871 471.252C656.779 467.818 658.075 464.755 660.668 462.155C663.724 459.185 668.355 457.7 674.467 457.7Z" fill="#BDBFC1"/>
</svg>
